<?xml version="1.0" encoding="iso-8859-1"?>
<!-- Generator: Adobe Illustrator 19.0.0, SVG Export Plug-In . SVG Version: 6.00 Build 0)  -->
<svg version="1.1" id="Layer_1" xmlns="http://www.w3.org/2000/svg" xmlns:xlink="http://www.w3.org/1999/xlink" x="0px" y="0px"
	 viewBox="0 0 512 512" style="enable-background:new 0 0 512 512;" xml:space="preserve">
<g>
	<g>
		<path d="M256,0C114.844,0,0,114.844,0,256s114.844,256,256,256s256-114.844,256-256S397.156,0,256,0z M263.375,64.198
			c10.51-5.813,24.51-6.938,33.01,3.875c1.979,2.521,2.719,5.802,2.021,8.927s-2.771,5.771-5.635,7.208
			c-1.573,1.281-2.927,8.927-3.646,13.031c-1.979,11.25-4.698,26.646-19.875,30.438c-2.865,0.719-5.5,1.031-7.896,1.031
			c-6.958,0-11.969-2.573-15.219-5.115c-10.354-8.083-11.469-21.99-11.469-27.594C234.667,80.354,247.969,66.021,263.375,64.198z
			 M271.9,468.529c-5.268,0.392-10.533,0.805-15.9,0.805c-117.635,0-213.333-95.698-213.333-213.333
			c0-58.25,23.516-111.074,61.49-149.611c1.497,11.376,2.51,28.198,2.51,53.611v5.698c-0.031,47.865-0.042,60.729,24.177,86.885
			c21.198,22.896,84.281,76.885,110.333,87.906c2.594,1.104,3.583,1.958,3.76,1.958c-0.042,1.656-2.167,5.969-3.583,8.854
			c-2.979,6.052-6.688,13.583-6.688,22.031c0,12.833,12.323,26.813,25.375,41.615c6.177,7.01,16.521,18.74,17.292,22.385
			C277.333,443.253,274.781,456.156,271.9,468.529z M384.767,425.689c12.26-18.582,20.566-35,20.566-41.689
			c0-20.333-11.656-32-31.844-32h-0.01c-6.521-0.667-28.771-17.49-42.063-27.542c-24.74-18.719-34.885-25.792-43.417-25.792
			c-9.406,0-17.094,4.01-22.271,7.833c-8.573-6.469-20.396-17.885-20.396-29.167c0-23.427-20.719-26.219-29.854-27.083
			c1.375-2.333,3.323-4.615,5.615-5.531c5.25-2.052,12.74,4.198,16.698,8.156c3.063,3.063,7.635,4,11.625,2.313
			c3.99-1.646,6.583-5.542,6.583-9.854c0-34.948,40.24-52.74,69.615-65.74c21.51-9.51,37.052-16.385,37.052-30.26
			c0-15.271-14.229-27.094-26.781-37.531c-5.698-4.74-15.229-12.656-16.385-15.604c0.417-0.354,1.906-1.063,3-1.573
			c6.583-3.083,18.833-8.813,18.833-30.625c0-1.251-0.26-2.349-0.335-3.56C416.431,93.355,469.333,168.577,469.333,256
			C469.333,325.238,436.033,386.69,384.767,425.689z"/>
	</g>
</g>
<g>
</g>
<g>
</g>
<g>
</g>
<g>
</g>
<g>
</g>
<g>
</g>
<g>
</g>
<g>
</g>
<g>
</g>
<g>
</g>
<g>
</g>
<g>
</g>
<g>
</g>
<g>
</g>
<g>
</g>
</svg>
