<svg version="1.1" id="Layer_1" xmlns="http://www.w3.org/2000/svg" x="0" y="0" viewBox="0 0 100 125" xml:space="preserve"><style>.st0{fill-rule:evenodd;clip-rule:evenodd}</style><path class="st0" d="M50 958.4c-1.1 0-2 .9-2 2v8c0 1.1.9 2 2 2 8.2 0 16.4 3.1 22.6 9.4 6.3 6.3 9.4 14.4 9.4 22.6 0 1.1.9 2 2 2h8c1.1 0 2-.9 2-2 0-11.3-4.3-22.5-12.9-31.1-8.6-8.6-19.8-12.9-31.1-12.9z" transform="translate(0 -952.362)"/><path class="st0" d="M50 974.3c-1.1 0-2 .9-2 2v8c0 1.1.9 2 2 2 4.1 0 8.2 1.6 11.3 4.7 3.1 3.1 4.7 7.2 4.7 11.3 0 1.1.9 2 2 2h7.7c.6.1 1.3-.1 1.7-.6.5-.5.7-1.1.5-1.7-.1-7.1-2.8-14.1-8.2-19.5-5.3-5.5-12.5-8.2-19.7-8.2z" transform="translate(0 -952.362)"/><path class="st0" d="M20.3 970.7c-.5 0-1 .2-1.4.6-17.2 17.2-17.2 45.1 0 62.2 17.2 17.2 45.1 17.2 62.2 0 .8-.8.8-2 0-2.8L60 1009.6c3.4-4.8 3-11.6-1.3-15.9-4.3-4.3-11.1-4.7-15.9-1.3l-21.1-21.1c-.4-.4-.9-.6-1.4-.6z" transform="translate(0 -952.362)"/></svg>