<?xml version="1.0" encoding="utf-8"?>
<!-- Generator: Adobe Illustrator 25.0.1, SVG Export Plug-In . SVG Version: 6.00 Build 0)  -->
<svg version="1.1" id="Layer_1" xmlns="http://www.w3.org/2000/svg" xmlns:xlink="http://www.w3.org/1999/xlink" x="0px" y="0px"
	 viewBox="0 0 1024 1065.6" style="enable-background:new 0 0 1024 1065.6;" xml:space="preserve">
<g>
	<g>
		<g>
			<path d="M836.3,532.8c0,16.3-1.1,32.5-3.3,48.6c0.4-3.1,0.8-6.2,1.3-9.3c-4.3,31.3-12.6,61.8-24.8,90.9c1.2-2.8,2.4-5.6,3.5-8.4
				c-12,28.4-27.6,55.1-46.4,79.6c1.8-2.4,3.6-4.7,5.5-7.1c-19.1,24.7-41.1,46.7-65.7,65.7c2.4-1.8,4.7-3.6,7.1-5.5
				c-24.5,18.8-51.2,34.4-79.6,46.4c2.8-1.2,5.6-2.4,8.4-3.5c-29.1,12.2-59.6,20.5-90.9,24.8c3.1-0.4,6.2-0.8,9.3-1.3
				c-32.3,4.3-65,4.3-97.3,0c3.1,0.4,6.2,0.8,9.3,1.3c-31.3-4.3-61.8-12.6-90.9-24.8c2.8,1.2,5.6,2.4,8.4,3.5
				c-28.4-12-55.1-27.6-79.6-46.4c2.4,1.8,4.7,3.6,7.1,5.5c-24.7-19-46.7-41-65.7-65.6c1.8,2.4,3.6,4.7,5.5,7.1
				c-18.8-24.5-34.4-51.2-46.4-79.6c1.2,2.8,2.4,5.6,3.5,8.4c-12.2-29.1-20.5-59.6-24.8-90.9c0.4,3.1,0.8,6.2,1.3,9.3
				c-4.3-32.3-4.3-65,0-97.3c-0.4,3.1-0.8,6.2-1.3,9.3c4.3-31.3,12.6-61.8,24.8-90.9c-1.2,2.8-2.4,5.6-3.5,8.4
				c12-28.4,27.6-55.1,46.4-79.6c-1.8,2.4-3.6,4.7-5.5,7.1c19-24.7,41-46.7,65.6-65.7c-2.4,1.8-4.7,3.6-7.1,5.5
				c24.5-18.8,51.2-34.4,79.6-46.4c-2.8,1.2-5.6,2.4-8.4,3.5c29.1-12.2,59.6-20.5,90.9-24.8c-3.1,0.4-6.2,0.8-9.3,1.3
				c32.3-4.3,65-4.3,97.3,0c-3.1-0.4-6.2-0.8-9.3-1.3c31.3,4.3,61.8,12.6,90.9,24.8c-2.8-1.2-5.6-2.4-8.4-3.5
				c28.4,12,55.1,27.6,79.6,46.4c-2.4-1.8-4.7-3.6-7.1-5.5c24.7,19,46.7,41,65.7,65.6c-1.8-2.4-3.6-4.7-5.5-7.1
				c18.8,24.5,34.4,51.2,46.4,79.6c-1.2-2.8-2.4-5.6-3.5-8.4c12.2,29.1,20.5,59.6,24.8,90.9c-0.4-3.1-0.8-6.2-1.3-9.3
				C835.2,500.3,836.3,516.5,836.3,532.8c0,18.3,16.1,35.8,35,35s35-15.4,35-35c-0.2-80.2-24.8-160.8-71.5-226.2
				c-24.3-34.1-52.8-63.3-86-88.7c-31.5-24.2-66.8-42.7-104.1-56.3c-76.3-27.9-162.5-30.3-240.6-8.1
				c-75.1,21.3-144.5,65.8-194.3,126.2c-27,32.7-48,68.1-64.1,107.3c-15.4,37.5-23.9,77.4-27,117.8c-6.2,80.5,13.9,163.4,55.9,232.3
				c40.3,66.3,100.8,121.3,171.6,153.4c19.4,8.8,39.3,16.5,59.8,22.2c21,5.9,42.5,9.5,64.1,12c40.9,4.7,82.4,2.2,122.7-6
				c77.1-15.6,149.6-56.3,203.9-113.2c54.3-57,92.2-130.6,104.1-208.7c3.2-21.2,5.4-42.6,5.4-64.1c0-18.3-16.1-35.8-35-35
				C852.3,498.7,836.3,513.2,836.3,532.8z"/>
		</g>
	</g>
	<g>
		<g>
			<path d="M636.3,532.8c0,7-0.5,13.9-1.3,20.8c0.4-3.1,0.8-6.2,1.3-9.3c-1.9,14.3-5.7,28.2-11.3,41.5c1.2-2.8,2.4-5.6,3.5-8.4
				c-5.4,12.5-12.3,24.3-20.6,35.1c1.8-2.4,3.6-4.7,5.5-7.1c-8.3,10.7-17.9,20.3-28.6,28.6c2.4-1.8,4.7-3.6,7.1-5.5
				c-10.8,8.3-22.6,15.2-35.1,20.6c2.8-1.2,5.6-2.4,8.4-3.5c-13.3,5.6-27.2,9.4-41.5,11.3c3.1-0.4,6.2-0.8,9.3-1.3
				c-13.8,1.7-27.8,1.7-41.6,0c3.1,0.4,6.2,0.8,9.3,1.3c-14.3-1.9-28.2-5.7-41.5-11.3c2.8,1.2,5.6,2.4,8.4,3.5
				c-12.5-5.4-24.3-12.3-35.1-20.6c2.4,1.8,4.7,3.6,7.1,5.5c-10.7-8.3-20.3-17.9-28.6-28.6c1.8,2.4,3.6,4.7,5.5,7.1
				c-8.3-10.8-15.2-22.6-20.6-35.1c1.2,2.8,2.4,5.6,3.5,8.4c-5.6-13.3-9.4-27.2-11.3-41.5c0.4,3.1,0.8,6.2,1.3,9.3
				c-1.7-13.8-1.7-27.8,0-41.6c-0.4,3.1-0.8,6.2-1.3,9.3c1.9-14.3,5.7-28.2,11.3-41.5c-1.2,2.8-2.4,5.6-3.5,8.4
				c5.4-12.5,12.3-24.3,20.6-35.1c-1.8,2.4-3.6,4.7-5.5,7.1c8.3-10.7,17.9-20.3,28.6-28.6c-2.4,1.8-4.7,3.6-7.1,5.5
				c10.8-8.3,22.6-15.2,35.1-20.6c-2.8,1.2-5.6,2.4-8.4,3.5c13.3-5.6,27.2-9.4,41.5-11.3c-3.1,0.4-6.2,0.8-9.3,1.3
				c13.8-1.7,27.8-1.7,41.6,0c-3.1-0.4-6.2-0.8-9.3-1.3c14.3,1.9,28.2,5.7,41.5,11.3c-2.8-1.2-5.6-2.4-8.4-3.5
				c12.5,5.4,24.3,12.3,35.1,20.6c-2.4-1.8-4.7-3.6-7.1-5.5c10.7,8.3,20.3,17.9,28.6,28.6c-1.8-2.4-3.6-4.7-5.5-7.1
				c8.3,10.8,15.2,22.6,20.6,35.1c-1.2-2.8-2.4-5.6-3.5-8.4c5.6,13.3,9.4,27.2,11.3,41.5c-0.4-3.1-0.8-6.2-1.3-9.3
				C635.8,518.9,636.3,525.8,636.3,532.8c0.1,18.3,16,35.8,35,35c18.9-0.8,35.1-15.4,35-35c-0.2-38.9-11.8-78.6-34.5-110.4
				c-24.2-33.8-56.5-58.6-95.6-73c-73.5-26.9-162.4-3-212.1,57.6c-14.1,17.2-24.6,34.9-33,55.4c-7.6,18.4-11.3,38-12.9,57.8
				c-3,38.8,7.1,79.3,27.2,112.5c19.5,32.3,49.1,60,83.6,75.6c20.7,9.3,41,14.9,63.6,17.6c20.1,2.4,40.5,0.8,60.4-3.2
				c75.3-15.2,138.7-80.2,150.3-156.4c1.7-11.1,3-22.2,3.1-33.5c0.1-18.3-16.2-35.8-35-35C652.3,498.7,636.4,513.2,636.3,532.8z"/>
		</g>
	</g>
	<g>
		<g>
			<path d="M477,892.1c0,19.6,0,39.2,0,58.7c0,18.3,16.1,35.8,35,35c19-0.8,35-15.4,35-35s0-39.2,0-58.7c0-18.3-16.1-35.8-35-35
				C493,857.9,477,872.5,477,892.1L477,892.1z"/>
		</g>
	</g>
	<g>
		<g>
			<path d="M477,114.8c0,19.6,0,39.2,0,58.7c0,18.3,16.1,35.8,35,35c19-0.8,35-15.4,35-35s0-39.2,0-58.7c0-18.3-16.1-35.8-35-35
				C493,80.6,477,95.2,477,114.8L477,114.8z"/>
		</g>
	</g>
	<g>
		<g>
			<path d="M871.3,567.8c19.6,0,39.2,0,58.7,0c18.3,0,35.8-16.1,35-35c-0.8-19-15.4-35-35-35s-39.2,0-58.7,0
				c-18.3,0-35.8,16.1-35,35C837.1,551.8,851.7,567.8,871.3,567.8L871.3,567.8z"/>
		</g>
	</g>
	<g>
		<g>
			<path d="M94,567.8c19.6,0,39.2,0,58.7,0c18.3,0,35.8-16.1,35-35c-0.8-19-15.4-35-35-35s-39.2,0-58.7,0c-18.3,0-35.8,16.1-35,35
				C59.8,551.8,74.4,567.8,94,567.8L94,567.8z"/>
		</g>
	</g>
</g>
</svg>
