<?xml version="1.0" encoding="utf-8"?>
<!-- Generator: Adobe Illustrator 25.0.1, SVG Export Plug-In . SVG Version: 6.00 Build 0)  -->
<svg version="1.1" id="Layer_1" xmlns="http://www.w3.org/2000/svg" xmlns:xlink="http://www.w3.org/1999/xlink" x="0px" y="0px"
	 viewBox="0 0 29 34.4" style="enable-background:new 0 0 29 34.4;" xml:space="preserve">
<path d="M14.5,34.4c1.2,0,2.2-1,2.2-2.2V7.8l8.4,9.1c0.8,0.9,2.2,1,3.1,0.2c0.9-0.8,1-2.2,0.2-3.1c-0.1-0.1-0.1-0.1-0.1-0.1
	L16.1,0.7c-0.8-0.9-2.2-0.9-3.2-0.1c-0.1,0.1-0.1,0.1-0.1,0.1L0.6,13.8c-0.8,0.9-0.8,2.3,0.1,3.2c0.9,0.9,2.3,0.8,3.2-0.1l8.4-9.1
	v24.4C12.3,33.4,13.3,34.4,14.5,34.4z"/>
</svg>
