<?xml version="1.0" encoding="utf-8"?>
<!-- Generator: Adobe Illustrator 25.0.1, SVG Export Plug-In . SVG Version: 6.00 Build 0)  -->
<svg version="1.1" id="Layer_1" xmlns="http://www.w3.org/2000/svg" xmlns:xlink="http://www.w3.org/1999/xlink" x="0px" y="0px"
	 viewBox="0 0 100 125" style="enable-background:new 0 0 100 125;" xml:space="preserve">
<path d="M49.9,93.5c2.2,0,4-1.8,4-4V45.6l15.2,16.3c1.4,1.7,4,1.8,5.6,0.4c1.7-1.4,1.8-4,0.4-5.6c-0.1-0.1-0.1-0.1-0.2-0.2
	L52.9,32.8c-1.5-1.6-4-1.7-5.7-0.2c-0.1,0.1-0.1,0.1-0.2,0.2L24.9,56.4c-1.5,1.6-1.4,4.1,0.2,5.7s4.1,1.4,5.7-0.2l15.2-16.3v43.9
	C45.9,91.7,47.7,93.5,49.9,93.5z"/>
</svg>
