<?xml version="1.0" encoding="utf-8"?>
<!-- Generator: Adobe Illustrator 25.0.1, SVG Export Plug-In . SVG Version: 6.00 Build 0)  -->
<svg version="1.1" id="Layer_1" xmlns="http://www.w3.org/2000/svg" xmlns:xlink="http://www.w3.org/1999/xlink" x="0px" y="0px"
	 viewBox="0 0 22.5 22.5" style="enable-background:new 0 0 22.5 22.5;" xml:space="preserve">
<path d="M0,11.3c0-2,0.5-3.9,1.5-5.7s2.4-3.1,4.1-4.1S9.2,0,11.3,0c1.5,0,3,0.3,4.4,0.9s2.6,1.4,3.6,2.4s1.8,2.2,2.4,3.6
	s0.9,2.9,0.9,4.4c0,1.5-0.3,3-0.9,4.4s-1.4,2.6-2.4,3.6S17,21,15.6,21.6s-2.8,0.9-4.4,0.9s-3-0.3-4.4-0.9s-2.6-1.4-3.6-2.4
	S1.5,17,0.9,15.6S0,12.8,0,11.3z M2.5,11.3c0,2.4,0.9,4.4,2.6,6.2c1.7,1.7,3.8,2.6,6.2,2.6c1.6,0,3.1-0.4,4.4-1.2s2.4-1.9,3.2-3.2
	s1.2-2.8,1.2-4.4s-0.4-3.1-1.2-4.4S17,4.5,15.7,3.7s-2.8-1.2-4.4-1.2S8.2,2.9,6.9,3.7S4.5,5.5,3.7,6.9S2.5,9.7,2.5,11.3z M7.4,17.1
	L11.1,4c0-0.1,0.1-0.1,0.1-0.1s0.1,0.1,0.1,0.1l3.7,13.1c0,0.1,0,0.2,0,0.2s-0.1,0.1-0.2,0l-3.5-1.3c-0.1,0-0.2,0-0.3,0l-3.5,1.3
	c-0.1,0.1-0.2,0.1-0.2,0S7.4,17.2,7.4,17.1z"/>
</svg>
